<svg xmlns="http://www.w3.org/2000/svg" xmlns:xlink="http://www.w3.org/1999/xlink" width="399.999" height="399.999" viewBox="0 0 399.999 399.999">
  <defs>
    <clipPath id="clip-path">
      <path d="M0,0H400V-400H0Z"/>
    </clipPath>
  </defs>
  <g id="qiita" transform="translate(0 399.999)" clip-path="url(#clip-path)">
    <path d="M297.025-96.856c-21.575,23.011-50.888,30.581-86.372,34.169C138.8-55.42,76.561-87.506,69.024-167.678c-3.205-34.083,4.38-66.482,19.673-93.033l-8.9-35.013c-1.437-6.089,4.164-11.879,10.1-10.439l30.759,7.467A120.89,120.89,0,0,1,185.469-326a118.766,118.766,0,0,1,59.517,9.373L273.9-334.112a8.538,8.538,0,0,1,12.849,6.939l1.668,41.247c22.235,23.476,37.375,55.533,40.8,91.937,1.933,20.563-.2,36.293-5.651,51.3-2.552,7.024-3.32,12.964,1.293,18.843,4.456,5.681,11.524,16.708,19.405,14.859,11.845-2.777,24.531-2.036,32.371,2.86A199.1,199.1,0,0,0,400-200c0-110.457-89.542-200-200-200S0-310.457,0-200,89.542,0,200,0A199.413,199.413,0,0,0,344.163-61.387a47.186,47.186,0,0,1-19.112-7.571c-11.908-7.939-22.475-15.437-28.027-27.9" fill="#55c500"/>
    <path d="M278.559-243.489l18.68-2.289-.264-3.365-19.164,2.349q-1.227-3.611-2.776-7.1l21.109-6.735-.663-4.227-22.451,7.779c-15.06-31.575-47.623-50.744-84.488-47.016a86.624,86.624,0,0,0-74.893,64.14l-21.96-3.327-.235,4.316,21.623,2.343a63.813,63.813,0,0,0-1.433,6.539l-18.864,1.505.171,3.373,18.387-1.467a66.811,66.811,0,0,0-.553,7.609l-16.8,6.867.824,4.165,16-7.487c.037,2.231.133,3.421.345,5.679,4.447,47.284,43.941,56.635,91.129,51.863s84.2-21.859,79.75-69.142c-.213-2.269-.539-3.448-.921-5.656l17.328,3.764.4-3.816-18.173-3.453a66.8,66.8,0,0,0-2.108-7.209" fill="#55c500"/>
  </g>
</svg>
